<?xml version="1.0" encoding="utf-8"?>
<!-- Generator: Adobe Illustrator 18.1.1, SVG Export Plug-In . SVG Version: 6.00 Build 0)  -->
<!DOCTYPE svg PUBLIC "-//W3C//DTD SVG 1.1//EN" "http://www.w3.org/Graphics/SVG/1.1/DTD/svg11.dtd">
<svg version="1.1" id="Layer_1" xmlns="http://www.w3.org/2000/svg" xmlns:xlink="http://www.w3.org/1999/xlink" x="0px" y="0px"
	 viewBox="0 0 20.3 13.2" enable-background="new 0 0 20.3 13.2" xml:space="preserve">
<path fill="#FFFFFF" d="M13.8,12.8c-0.5,0.5-1,0.5-1.5,0l-0.3-0.4c-0.5-0.4-0.4-0.9,0.2-1.4L15.6,8H1.4c-0.4,0-0.7-0.1-1-0.4
	C0.1,7.2,0,6.9,0,6.5c0-0.4,0.1-0.7,0.4-1c0.3-0.3,0.6-0.4,1-0.4h14.2l-3.3-3c-0.6-0.5-0.6-1-0.2-1.4l0.3-0.4c0.5-0.5,1-0.5,1.5,0
	l5.6,5l0.4,0.4c0.2,0.2,0.4,0.4,0.4,0.7c0,0.3-0.1,0.5-0.4,0.7l-0.4,0.4L13.8,12.8z"/>
</svg>
