<?xml version="1.0" encoding="utf-8"?>
<!-- Generator: Adobe Illustrator 18.1.1, SVG Export Plug-In . SVG Version: 6.00 Build 0)  -->
<!DOCTYPE svg PUBLIC "-//W3C//DTD SVG 1.1//EN" "http://www.w3.org/Graphics/SVG/1.1/DTD/svg11.dtd">
<svg version="1.1" id="Layer_1" xmlns="http://www.w3.org/2000/svg" xmlns:xlink="http://www.w3.org/1999/xlink" x="0px" y="0px"
	 viewBox="0 0 18.7 18.7" enable-background="new 0 0 18.7 18.7" xml:space="preserve">
<path fill="#FFFFFF" d="M17.5,2.6c0-0.3-0.2-0.6-0.5-1c-0.3-0.3-0.6-0.4-0.9-0.4c-0.4,0-0.7,0.2-1.1,0.5c-0.2,0.2-2.8,2.8-7.9,7.9
	C7,10,6.7,10.9,6.2,12.4c1.4-0.5,2.4-0.8,2.8-0.9l0.4-0.4C14.1,6.5,16.6,4,17,3.7C17.3,3.3,17.5,2.9,17.5,2.6 M18.7,2.6
	c0,0.6-0.3,1.3-0.9,1.9c-0.2,0.2-2.9,2.8-8.1,8c0,0-0.1,0.1-0.2,0.1c-1.2,0.4-2.6,0.8-4.2,1.3c0,0-0.1,0-0.2,0c-0.1,0-0.2,0-0.3-0.1
	c-0.1-0.1-0.2-0.3-0.1-0.5C5.4,11.1,5.8,9.7,6,9c0-0.1,0.1-0.2,0.1-0.3c2.6-2.6,4.5-4.5,5.9-5.9c1.3-1.3,2-2,2.1-2.1
	C14.7,0.3,15.3,0,16,0c0.6,0,1.2,0.3,1.7,0.8C18.4,1.3,18.7,1.9,18.7,2.6 M14.6,10.1L15.8,9v8.5c0,0.3-0.1,0.6-0.3,0.8
	c-0.2,0.2-0.5,0.3-0.8,0.3H1.2c-0.3,0-0.6-0.1-0.8-0.3C0.1,18.1,0,17.8,0,17.5V2.9c0-0.3,0.1-0.6,0.3-0.8c0.2-0.2,0.5-0.3,0.8-0.3
	h9.3l0,0L9.3,2.9H1.2v14.6h13.4V10.1z"/>
</svg>
