<?xml version="1.0" encoding="utf-8"?>
<!-- Generator: Adobe Illustrator 18.1.1, SVG Export Plug-In . SVG Version: 6.00 Build 0)  -->
<svg version="1.1" id="Layer_1" xmlns="http://www.w3.org/2000/svg" xmlns:xlink="http://www.w3.org/1999/xlink" x="0px" y="0px"
	 viewBox="-134 -56.6 286 131.6" enable-background="new -134 -56.6 286 131.6" xml:space="preserve">
<path fill="#FFFFFF" d="M143.8-48.3h-20.6V66.8h20.6V-48.3z M150.9-55.4c0.8,0.8,1.2,1.8,1.2,3V70.9c0,1.2-0.4,2.2-1.2,3
	c-0.8,0.8-1.8,1.2-3,1.2h-28.8c-1,0-2-0.4-2.8-1.2c-0.9-0.8-1.3-1.8-1.3-3V-52.4c0-1.2,0.4-2.2,1.3-3c0.9-0.8,1.8-1.2,2.8-1.2h28.8
	C149.1-56.6,150.1-56.2,150.9-55.4 M98.6,17.2H78v49.6h20.6V17.2z M105.7,10.1c0.8,0.8,1.2,1.8,1.2,3v57.8c0,1.2-0.4,2.2-1.2,3
	c-0.8,0.8-1.8,1.2-3,1.2H73.9c-1.2,0-2.2-0.4-3-1.2c-0.8-0.8-1.2-1.8-1.2-3V13.1c0-1.2,0.4-2.2,1.2-3c0.8-0.8,1.8-1.2,3-1.2h28.8
	C103.9,9,104.9,9.4,105.7,10.1 M53.4-7.2H32.8v74h20.6V-7.2z M60.4-14.3c0.8,0.8,1.2,1.8,1.2,3v82.2c0,1.2-0.4,2.2-1.2,3
	c-0.8,0.8-1.8,1.2-3,1.2H28.7c-1.2,0-2.2-0.4-3-1.2c-0.8-0.8-1.2-1.8-1.2-3v-82.2c0-1.2,0.4-2.2,1.2-3c0.8-0.8,1.8-1.2,3-1.2h28.8
	C58.7-15.4,59.7-15.1,60.4-14.3 M-80.6-48.1c-12.2,0.9-22.5,5.5-31,14s-13.1,18.8-14,31h45V-48.1z M-73.5,4c-0.8,0.8-1.8,1.2-3,1.2
	h-53.4c-1.2,0-2.2-0.4-3-1.2c-0.8-0.8-1.2-1.8-1.2-3c0-15.9,5.6-29.5,16.8-40.7c11.2-11.2,24.8-16.8,40.7-16.8c1.2,0,2.2,0.4,3,1.2
	c0.8,0.8,1.2,1.8,1.2,3V1C-72.3,2.2-72.7,3.2-73.5,4 M-18.6-27.9c10.8,11,16.2,25.1,16.2,42c0,16.8-6,31.1-17.9,43
	C-32.2,69-46.6,75-63.5,75c-16.9,0-30.8-5.5-41.9-16.6c-11-11-16.6-25-16.6-41.8c0-1.2,0.4-2.2,1.2-3c0.8-0.8,1.7-1.2,2.8-1.2
	c1.1,0,2.1,0.4,3,1.2c0.9,0.8,1.3,1.8,1.3,3c0,14.6,4.8,26.6,14.3,36c9.5,9.4,21.5,14.1,36.1,14.1c14.6,0,27-5.1,37.3-15.4
	c10.3-10.3,15.4-22.7,15.4-37.3c0-14.7-4.6-26.8-13.9-36.2c-9.3-9.4-21.1-14.1-35.5-14.1c-1.2,0-2.2-0.4-3-1.3
	c-0.8-0.9-1.2-1.8-1.2-3c0-1.1,0.4-2.1,1.2-2.8c0.8-0.8,1.8-1.2,3-1.2C-43.2-44.5-29.4-39-18.6-27.9"/>
</svg>
