<?xml version="1.0" encoding="utf-8"?>
<!-- Generator: Adobe Illustrator 18.1.1, SVG Export Plug-In . SVG Version: 6.00 Build 0)  -->
<!DOCTYPE svg PUBLIC "-//W3C//DTD SVG 1.1//EN" "http://www.w3.org/Graphics/SVG/1.1/DTD/svg11.dtd">
<svg version="1.1" id="Layer_1" xmlns="http://www.w3.org/2000/svg" xmlns:xlink="http://www.w3.org/1999/xlink" x="0px" y="0px"
	 viewBox="0 0 18 18" enable-background="new 0 0 18 18" xml:space="preserve">
<path fill="#FFFFFF" d="M13.4,5.7c0.3,0.3,0.3,0.5,0,0.8l-5.6,5.6c0,0,0,0.1,0,0.1c-0.3,0.3-0.5,0.3-0.8,0L4.1,9.4
	c-0.3-0.3-0.3-0.5,0-0.8c0.3-0.3,0.5-0.3,0.8,0L7.3,11l5.3-5.3C12.8,5.4,13.1,5.4,13.4,5.7 M16.8,9c0-2.2-0.8-4-2.3-5.6
	C13,1.9,11.2,1.1,9,1.1S5,1.9,3.4,3.4C1.9,5,1.1,6.8,1.1,9s0.8,4,2.3,5.6C5,16.1,6.8,16.9,9,16.9s4-0.8,5.6-2.3
	C16.1,13,16.8,11.2,16.8,9 M18,9c0,2.5-0.9,4.6-2.6,6.4S11.5,18,9,18c-2.5,0-4.6-0.9-6.4-2.6S0,11.5,0,9c0-2.5,0.9-4.6,2.6-6.4
	S6.5,0,9,0c2.5,0,4.6,0.9,6.4,2.6S18,6.5,18,9"/>
</svg>
