<?xml version="1.0" encoding="utf-8"?>
<!-- Generator: Adobe Illustrator 18.1.1, SVG Export Plug-In . SVG Version: 6.00 Build 0)  -->
<svg version="1.1" id="Layer_1" xmlns="http://www.w3.org/2000/svg" xmlns:xlink="http://www.w3.org/1999/xlink" x="0px" y="0px"
	 viewBox="0 0 248 144.9" enable-background="new 0 0 248 144.9" xml:space="preserve">
<g>
	<path fill="#FFFFFF" d="M211.2,55.6c1-4.3-3.3-7.1-6.9-5.1c-1.6,0.9-3.2,1.8-4.7,2.7c-5.2,3-10.4,6-15.6,9c-1.3,0.8-2.7,1.5-4,2.3
		c-1.3-0.7-2.8-1.1-4.3-1.1c-2.6-4.6-5.1-9.3-7.8-13.8c-1.1-2-3.2-2.9-5.4-2.2c-2.9,0.9-3.8,4-2.5,6.6c1.1,2.2,2.4,4.3,3.6,6.4
		c1.4,2.5,2.9,5.1,4.3,7.6c-2.9,5.1,0,12.1,5.8,13.3c5.7,1.2,11.3-3.2,11.2-9.1c7.4-4.3,14.9-8.6,22.3-12.8
		C208.8,58.5,210.7,57.7,211.2,55.6C211.4,54.4,210.9,56.8,211.2,55.6z"/>
	<path fill="#FFFFFF" d="M247.9,77.1c0.8-14.8-2.4-29.7-10.3-42.4c-7.9-12.6-19.7-23.2-33.4-29.1c-13.6-5.8-29.2-7.1-43.6-4.2
		c-14.7,2.9-27.7,10.7-37.9,21.6c-10.4,11-17.1,24.9-18.9,40c-0.4,3.1-0.7,6.6-0.8,9.5c-0.1,1.9,0.3,4,0.4,6
		c0.1,1.9,0.4,3.8,0.6,5.7c1.1,7.3,3.4,14.4,6.7,20.9c6.8,13.2,17.9,24.5,31,31.5c13.1,7.1,28.4,9.4,43.2,7.6
		c14.7-1.7,28.3-8.2,39.3-18.2c11.2-10.3,19.3-23.5,22.3-38.4C247.3,84.3,247.7,80.7,247.9,77.1C248,76.6,247.9,77.1,247.9,77.1z
		 M200.6,125.1l2.4,4.5c-7.2,3.4-15,5.4-23,5.9c0-3.4,1-10.2-4.2-10.2c-2.9,0-4.8,2.6-4.8,5.3c0,1.6,0,3.3,0,4.9
		c-8-0.6-15.7-2.6-23.1-6.2c0.8-1.3,1.6-2.6,2.4-3.9c1.4-2.3,0.9-5.1-1.4-6.6c-4.6-2.3-6.8,2.6-8.6,5.8c-6.6-4.5-12.2-10-16.6-16.6
		c1.3-0.8,2.5-1.5,3.8-2.3c2.3-1.4,4-4.5,2.3-7c-0.9-1.2-2.3-2.1-3.8-2.1c-1.1,0-1.9,0.5-2.9,1c-1.4,0.8-2.7,1.5-4.1,2.2
		c-3.6-7.1-5.6-14.9-6.2-22.9c3.6,0,9.6,0.8,9.6-4.5c0-5.2-6-4.5-9.6-4.5c0.6-8,2.5-15.7,5.9-22.8c1.4,0.8,2.8,1.5,4.1,2.3
		c2.5,1.4,5.1,1.1,6.6-1.4c1.7-2.7,0.9-5.3-1.8-6.9c-1.3-0.8-2.7-1.5-4-2.3c4.6-6.8,10.2-12.3,17-16.8c0.7,1.3,1.5,2.7,2.2,4
		c1.3,2.1,4,3.4,6.4,1.9c2.4-1.5,2.7-4.4,1.4-6.7c-0.8-1.3-1.6-2.7-2.3-4c7.2-3.4,14.8-5.4,22.8-5.9c0,3.6-0.9,10.2,4.5,10.2
		c5.4,0,4.5-6.6,4.5-10.2c8,0.6,16,2.6,23.3,6.2c-0.8,1.3-1.5,2.6-2.3,3.9c-1.3,2.3-0.8,5.1,1.5,6.6c4.6,2.3,6.8-2.6,8.7-5.8
		c6.6,4.5,12.2,10,16.6,16.6c-1.3,0.8-2.5,1.5-3.8,2.3c-2.3,1.4-4,4.5-2.3,7c0.9,1.2,2.3,2.1,3.8,2.1c1.1,0,1.9-0.5,2.9-1
		c1.4-0.8,2.7-1.5,4.1-2.3c3.6,7.1,5.6,14.8,6.2,22.8c-1.6,0-3.1,0-4.7,0c-2.7,0-5,1.8-4.9,4.6c0,5.2,6.1,4.4,9.6,4.4
		c-0.6,8-2.5,15.8-5.9,22.9c-1.4-0.8-2.8-1.5-4.1-2.3c-2.5-1.4-5.1-1.1-6.6,1.5c-1.7,2.7-0.9,5.3,1.8,6.9c1.3,0.8,2.7,1.5,4,2.3
		c-4.6,6.8-10.2,12.4-17,16.8c-1-1.8-1.9-4.2-3.5-5.5C203.6,116.3,198.1,120.9,200.6,125.1z"/>
	<path fill="#FFFFFF" d="M94.7,22.9c-8.2,0-16.4,0-24.7,0c-9.3,0-18.7,0-28,0c-2.7,0-5.5,0-8.2,0c-3.8,0-6.8,4.2-4,7.4
		c1.8,2.1,4.7,1.6,7.1,1.6c3.1,0,6.2,0,9.3,0c9.3,0,18.5,0,27.8,0c3.1,0,6.3,0,9.4,0c3.1,0,6.2,0,9.3,0c2.8,0,6.3-0.3,6.5-3.9
		C99.4,25.6,97.3,22.9,94.7,22.9z"/>
	<path fill="#FFFFFF" d="M66,76.9c2.5,0,4.7-2.2,4.5-4.7c-0.2-2.3-2.3-4.2-4.5-4.3c-2.1-0.1-4.3,0-6.4,0c-3.7,0-7.5,0-11.2,0
		c-9.4,0-18.7,0-28.1,0c-5.1,0-10.2,0-15.3,0c-4.3,0-6.8,4.9-3.2,8c1.8,1.5,4.7,1,6.9,1c9.4,0,18.8,0,28.2,0c9.2,0,18.3,0,27.5,0
		C64.9,76.9,65.4,76.9,66,76.9z"/>
	<path fill="#FFFFFF" d="M94.7,112.9c-8.2,0-16.4,0-24.7,0c-9.3,0-18.7,0-28,0c-2.7,0-5.5,0-8.2,0c-1.3,0-2.5,0.2-3.5,1
		c-1.9,1.6-2.1,4.3-0.5,6.2c1.9,2.2,4.6,1.8,7.1,1.8c3.1,0,6.2,0,9.3,0c9.3,0,18.5,0,27.8,0c3.1,0,6.3,0,9.4,0c3.1,0,6.2,0,9.3,0
		c0.7,0,1.3,0,2,0c2.3-0.1,4.4-2,4.5-4.3C99.4,115.2,97.2,112.9,94.7,112.9z"/>
</g>
</svg>
