<?xml version="1.0" encoding="utf-8"?>
<!-- Generator: Adobe Illustrator 18.1.1, SVG Export Plug-In . SVG Version: 6.00 Build 0)  -->
<!DOCTYPE svg PUBLIC "-//W3C//DTD SVG 1.1//EN" "http://www.w3.org/Graphics/SVG/1.1/DTD/svg11.dtd">
<svg version="1.1" id="Layer_1" xmlns="http://www.w3.org/2000/svg" xmlns:xlink="http://www.w3.org/1999/xlink" x="0px" y="0px"
	 viewBox="0 0 20 14.1" enable-background="new 0 0 20 14.1" xml:space="preserve">
<path fill="#FFFFFF" d="M10.7,3.6c-0.4-0.2-0.8-0.3-1.2-0.3H9.2L9.1,3c-0.5-1.5-1.5-2.2-3-2.2c-1,0-1.8,0.3-2.4,1
	C3.1,2.5,2.8,3.3,2.8,4.4l0.1,0.4L2.4,4.8C2,4.9,1.6,5.1,1.3,5.5C1,5.9,0.8,6.4,0.8,6.9C0.8,7.5,1,8,1.4,8.4
	c0.4,0.4,0.9,0.6,1.4,0.6h4.3c0.1,0,0.2,0,0.3,0.1c0.1,0.1,0.1,0.2,0.1,0.3c0,0.1,0,0.2-0.1,0.3C7.3,9.9,7.2,9.9,7.1,9.9H2.8
	C2,9.9,1.4,9.6,0.8,9C0.3,8.4,0,7.7,0,6.9c0-0.7,0.2-1.2,0.6-1.8C0.9,4.6,1.4,4.3,2,4.1c0.1-1.2,0.5-2.1,1.3-2.9C4,0.4,5,0,6.2,0
	c0.9,0,1.7,0.2,2.3,0.7c0.6,0.4,1.1,1.1,1.4,1.8c0.6,0.1,1.2,0.3,1.7,0.6L10.7,3.6z"/>
<path fill="#FFFFFF" d="M15.2,10.1c0.1,0.2,0.1,0.3,0,0.4l-0.1,0.1c-0.1,0.1-0.3,0.1-0.4-0.1l-0.9-1v4.1c0,0.1,0,0.2-0.1,0.3
	c-0.1,0.1-0.2,0.1-0.3,0.1c-0.1,0-0.2,0-0.3-0.1C13,13.9,13,13.8,13,13.7V9.5l-0.9,1c-0.2,0.2-0.3,0.2-0.4,0.1l-0.1-0.1
	c-0.2-0.1-0.2-0.3,0-0.4l1.5-1.6l0.1-0.1c0.1-0.1,0.1-0.1,0.2-0.1c0.1,0,0.2,0,0.2,0.1l0.1,0.1L15.2,10.1z M19,6.3
	c0.7,0.7,1,1.5,1,2.4c0,1-0.3,1.8-0.8,2.6c-0.6,0.8-1.3,1.2-2.3,1.2h-0.9c-0.1,0-0.2,0-0.3-0.1c-0.1-0.1-0.1-0.2-0.1-0.3
	c0-0.1,0-0.2,0.1-0.3c0.1-0.1,0.2-0.1,0.3-0.1h0.9c0.7,0,1.2-0.3,1.7-0.9c0.4-0.6,0.7-1.3,0.7-2c0-0.8-0.3-1.4-0.8-2
	c-0.6-0.5-1.2-0.8-2-0.8H16L16,5.6c-0.5-1.5-1.5-2.2-3-2.2c-1,0-1.8,0.3-2.4,1C9.9,5.1,9.6,6,9.6,7l0.1,0.4L9.3,7.4
	C8.8,7.5,8.4,7.7,8.1,8.1C7.8,8.6,7.6,9,7.6,9.5c0,0.6,0.2,1.1,0.6,1.5c0.4,0.4,0.9,0.6,1.4,0.6h1.2c0.1,0,0.2,0,0.3,0.1
	c0.1,0.1,0.1,0.2,0.1,0.3c0,0.1,0,0.2-0.1,0.3c-0.1,0.1-0.2,0.1-0.3,0.1H9.6c-0.8,0-1.4-0.3-2-0.9C7.1,11,6.8,10.3,6.8,9.5
	c0-0.7,0.2-1.2,0.6-1.8c0.4-0.5,0.8-0.9,1.4-1.1c0.1-1.2,0.5-2.1,1.3-2.9C10.8,3,11.8,2.6,13,2.6c0.9,0,1.7,0.2,2.3,0.7
	c0.6,0.4,1.1,1.1,1.4,1.8C17.6,5.2,18.4,5.6,19,6.3L19,6.3z"/>
</svg>
