<?xml version="1.0" encoding="utf-8"?>
<!-- Generator: Adobe Illustrator 18.1.1, SVG Export Plug-In . SVG Version: 6.00 Build 0)  -->
<!DOCTYPE svg PUBLIC "-//W3C//DTD SVG 1.1//EN" "http://www.w3.org/Graphics/SVG/1.1/DTD/svg11.dtd">
<svg version="1.1" id="Layer_1" xmlns="http://www.w3.org/2000/svg" xmlns:xlink="http://www.w3.org/1999/xlink" x="0px" y="0px"
	 viewBox="0 0 16.6 19.1" enable-background="new 0 0 16.6 19.1" xml:space="preserve">
<g>
	<path fill="#FFFFFF" d="M5.2,19.1c-2.9,0-5.2-2.3-5.2-5.2s2.3-5.2,5.2-5.2s5.2,2.3,5.2,5.2S8,19.1,5.2,19.1z M5.2,9.9
		c-2.3,0-4.1,1.8-4.1,4.1S2.9,18,5.2,18s4.1-1.8,4.1-4.1S7.4,9.9,5.2,9.9z"/>
</g>
<g>
	<path fill="#FFFFFF" d="M11.5,2.8c-0.3,0-0.6,0-0.9,0.1L10.9,4c0,0,0.1,0,0.1,0c0.2,0,0.3,0,0.5,0c2.3,0,4.1,1.8,4.1,4.1
		c0,2.3-1.8,4.1-4.1,4.1c-0.7,0-1.4-0.2-1.9-0.5l0,1.2c0.6,0.2,1.2,0.4,1.9,0.4c2.9,0,5.2-2.3,5.2-5.2S14.3,2.8,11.5,2.8z"/>
</g>
<g>
	<path fill="#FFFFFF" d="M11.7,5.2C11.7,2.3,9.4,0,6.5,0C3.7,0,1.4,2.3,1.4,5.2c0,1.8,0.9,3.4,2.4,4.3L5,8.9
		C3.5,8.3,2.5,6.9,2.5,5.2c0-2.3,1.8-4.1,4.1-4.1c2.3,0,4.1,1.8,4.1,4.1c0,2.1-1.6,3.8-3.7,4l0.8,1C10,9.6,11.7,7.6,11.7,5.2z"/>
</g>
</svg>
