<?xml version="1.0" encoding="utf-8"?>
<!-- Generator: Adobe Illustrator 18.1.1, SVG Export Plug-In . SVG Version: 6.00 Build 0)  -->
<!DOCTYPE svg PUBLIC "-//W3C//DTD SVG 1.1//EN" "http://www.w3.org/Graphics/SVG/1.1/DTD/svg11.dtd">
<svg version="1.1" id="Layer_1" xmlns="http://www.w3.org/2000/svg" xmlns:xlink="http://www.w3.org/1999/xlink" x="0px" y="0px"
	 viewBox="0 0 13.8 19.9" enable-background="new 0 0 13.8 19.9" xml:space="preserve">
<path fill="#FFFFFF" d="M12.6,18.6V8.1H6V1.2H1.2v17.4H12.6z M7.3,1.2H7.2v5.6h5.4V6.7L7.3,1.2z M13.8,6.2v12.4
	c0,0.3-0.1,0.6-0.4,0.9c-0.2,0.2-0.5,0.4-0.8,0.4H1.2c-0.3,0-0.6-0.1-0.8-0.4C0.1,19.3,0,19,0,18.6V1.2c0-0.3,0.1-0.6,0.4-0.9
	C0.6,0.1,0.9,0,1.2,0h6.6L13.8,6.2z"/>
</svg>
