<?xml version="1.0" encoding="utf-8"?>
<!-- Generator: Adobe Illustrator 18.1.1, SVG Export Plug-In . SVG Version: 6.00 Build 0)  -->
<!DOCTYPE svg PUBLIC "-//W3C//DTD SVG 1.1//EN" "http://www.w3.org/Graphics/SVG/1.1/DTD/svg11.dtd">
<svg version="1.1" id="Layer_1" xmlns="http://www.w3.org/2000/svg" xmlns:xlink="http://www.w3.org/1999/xlink" x="0px" y="0px"
	 viewBox="0 0 12.2 10.3" enable-background="new 0 0 12.2 10.3" xml:space="preserve">
<rect x="0.9" y="3.9" transform="matrix(-0.7069 -0.7073 0.7073 -0.7069 -1.4283 10.0801)" fill="#FFFFFF" width="1" height="2.9"/>
<polygon fill="#FFFFFF" points="8.8,0 6.1,2.7 3.4,0 0,3.4 0.7,4.1 3.4,1.4 6.1,4.1 6.1,4.1 6.1,4.1 8.8,1.4 11.5,4.1 12.2,3.4 "/>
<polygon fill="#FFFFFF" points="9.5,3.3 8.8,2.6 6.1,5.3 3.4,2.6 2.7,3.3 6.1,6.7 "/>
<rect x="9.4" y="4.8" transform="matrix(-0.7071 -0.7072 0.7072 -0.7071 14.7076 16.7647)" fill="#FFFFFF" width="2.9" height="1"/>
<polygon fill="#FFFFFF" points="6.1,8 3.4,5.3 0,8.7 0.7,9.4 2.9,7.2 2.9,10.3 3.9,10.3 3.9,7.2 6.1,9.4 6.1,9.4 6.1,9.4 6.2,9.3 
	8.3,7.2 8.3,10.3 9.3,10.3 9.3,7.2 11.5,9.4 12.2,8.7 8.8,5.3 "/>
</svg>
