<?xml version="1.0" encoding="utf-8"?>
<!-- Generator: Adobe Illustrator 18.1.1, SVG Export Plug-In . SVG Version: 6.00 Build 0)  -->
<!DOCTYPE svg PUBLIC "-//W3C//DTD SVG 1.1//EN" "http://www.w3.org/Graphics/SVG/1.1/DTD/svg11.dtd">
<svg version="1.1" id="Layer_1" xmlns="http://www.w3.org/2000/svg" xmlns:xlink="http://www.w3.org/1999/xlink" x="0px" y="0px"
	 viewBox="0 0 17.4 14.6" enable-background="new 0 0 17.4 14.6" xml:space="preserve">
<rect x="5.1" y="2.8" transform="matrix(0.7071 0.7072 -0.7072 0.7071 4.2762 -2.7371)" fill="#FFFFFF" width="0.7" height="2.1"/>
<polygon fill="#FFFFFF" points="10.7,0 8.8,1.9 6.9,0 4.5,2.4 5,2.9 6.9,1 8.8,2.9 8.8,2.9 8.8,2.9 10.7,1 12.6,2.9 13.1,2.4 "/>
<polygon fill="#FFFFFF" points="11.2,2.3 10.7,1.9 8.8,3.8 6.9,1.9 6.4,2.3 8.8,4.8 "/>
<rect x="11.1" y="3.4" transform="matrix(0.7071 0.7071 -0.7071 0.7071 6.2437 -7.4877)" fill="#FFFFFF" width="2.1" height="0.7"/>
<polygon fill="#FFFFFF" points="13.1,6.2 10.7,3.8 8.8,5.7 6.9,3.8 4.5,6.2 5,6.7 6.5,5.1 6.5,7.3 7.2,7.3 7.2,5.1 8.8,6.7 8.8,6.7 
	8.8,6.7 8.9,6.6 10.4,5.1 10.4,7.3 11.1,7.3 11.1,5.1 12.6,6.7 "/>
<polygon fill="#FFFFFF" points="3,10.3 2,13.5 1.9,13.7 1.9,13.7 1.8,13.4 0.8,10.3 0,10.3 1.5,14.6 2.2,14.6 3.8,10.3 "/>
<rect x="4.8" y="10.3" fill="#FFFFFF" width="0.7" height="4.3"/>
<polygon fill="#FFFFFF" points="7,10.3 7,14.6 9.7,14.6 9.7,14 7.7,14 7.7,10.3 "/>
<polygon fill="#FFFFFF" points="9.8,10.3 9.8,10.8 11.1,10.8 11.1,14.6 11.8,14.6 11.8,10.8 13.1,10.8 13.1,10.3 "/>
<polygon fill="#FFFFFF" points="16.7,10.3 16.7,12.2 14.8,12.2 14.8,10.3 14,10.3 14,14.6 14.8,14.6 14.8,12.7 16.7,12.7 16.7,14.6 
	17.4,14.6 17.4,10.3 "/>
</svg>
