<?xml version="1.0" encoding="utf-8"?>
<!-- Generator: Adobe Illustrator 18.1.1, SVG Export Plug-In . SVG Version: 6.00 Build 0)  -->
<svg version="1.1" id="Layer_1" xmlns="http://www.w3.org/2000/svg" xmlns:xlink="http://www.w3.org/1999/xlink" x="0px" y="0px"
	 viewBox="0 0 144.8 144.8" enable-background="new 0 0 144.8 144.8" xml:space="preserve">
<path fill="#FFFFFF" d="M86,58.8c0-2.4,0.9-4.6,2.7-6.4c1.8-1.8,3.9-2.7,6.4-2.7c2.4,0,4.6,0.9,6.4,2.7c1.8,1.8,2.7,3.9,2.7,6.4
	c0,2.5-0.9,4.6-2.7,6.4c-1.8,1.8-3.9,2.7-6.4,2.7c-2.5,0-4.6-0.9-6.4-2.7C86.9,63.4,86,61.3,86,58.8 M40.7,58.8
	c0-2.4,0.9-4.6,2.7-6.4c1.8-1.8,3.9-2.7,6.4-2.7c2.4,0,4.6,0.9,6.4,2.7c1.8,1.8,2.7,3.9,2.7,6.4c0,2.5-0.9,4.6-2.7,6.4
	c-1.8,1.8-3.9,2.7-6.4,2.7c-2.5,0-4.6-0.9-6.4-2.7C41.6,63.4,40.7,61.3,40.7,58.8 M135.7,72.4c0-17.5-6.2-32.5-18.5-44.8
	C104.9,15.2,89.9,9.1,72.4,9.1s-32.5,6.2-44.8,18.5C15.2,39.9,9.1,54.9,9.1,72.4s6.2,32.5,18.5,44.8c12.3,12.3,27.3,18.5,44.8,18.5
	s32.5-6.2,44.8-18.5C129.6,104.9,135.7,89.9,135.7,72.4 M144.8,72.4c0,20-7.1,37-21.2,51.2c-14.1,14.1-31.2,21.2-51.2,21.2
	c-20,0-37-7.1-51.2-21.2C7.1,109.4,0,92.4,0,72.4c0-20,7.1-37,21.2-51.2C35.4,7.1,52.4,0,72.4,0c20,0,37,7.1,51.2,21.2
	C137.7,35.4,144.8,52.4,144.8,72.4 M112.8,91.9c-0.4,0.8-0.9,1.8-1.7,3.1c-0.8,1.3-2.3,3.4-4.7,6.2c-2.4,2.8-4.9,5.4-7.8,7.6
	c-2.8,2.3-6.6,4.3-11.3,6.1c-4.7,1.8-9.8,2.8-15.3,3h-0.6c-5.1,0-9.9-0.9-14.6-2.7c-4.6-1.8-8.3-3.8-11.2-6.1
	c-2.8-2.3-5.4-4.9-7.8-7.8c-2.4-2.9-3.9-5-4.5-6.4c-0.7-1.3-1.2-2.4-1.6-3.1c-0.6-1.1-0.6-2.3-0.1-3.5c0.5-1.2,1.3-2.1,2.4-2.5
	c1.1-0.5,2.3-0.5,3.4,0c1.1,0.5,2,1.3,2.5,2.4c0.4,0.6,0.8,1.4,1.4,2.4c0.6,1,1.8,2.7,3.7,5.1c1.9,2.4,3.9,4.4,6.1,6.2
	c2.2,1.8,5.1,3.4,8.8,4.8c3.7,1.4,7.5,2.1,11.5,2.1h0.6c4.3-0.2,8.4-1,12.2-2.4c3.8-1.4,6.8-3,9.1-4.8c2.3-1.8,4.4-3.9,6.4-6.2
	c2-2.4,3.2-4,3.7-4.9c0.5-0.9,0.9-1.7,1.3-2.3c0.4-1.1,1.2-1.9,2.4-2.4c1.2-0.5,2.4-0.5,3.5,0c1.1,0.5,1.7,0.7,1.7,0.7
	s0.2,0.6,0.6,1.8C113.2,89.6,113.2,90.8,112.8,91.9"/>
</svg>
